<svg xmlns="http://www.w3.org/2000/svg" width="20" height="20" viewBox="0 0 20 20" fill="none">
  <path d="M 18.182 10 C 18.182 5.481 14.519 1.818 10 1.818 C 5.481 1.818 1.818 5.481 1.818 10 C 1.818 14.519 5.481 18.182 10 18.182 C 14.519 18.182 18.182 14.519 18.182 10 Z M 9.091 13.636 L 9.091 10 C 9.091 9.498 9.498 9.091 10 9.091 C 10.502 9.091 10.909 9.498 10.909 10 L 10.909 13.636 C 10.909 14.138 10.502 14.545 10 14.545 C 9.498 14.545 9.091 14.138 9.091 13.636 Z M 10.009 5.455 C 10.511 5.455 10.918 5.862 10.918 6.364 C 10.918 6.866 10.511 7.273 10.009 7.273 L 10 7.273 C 9.498 7.273 9.091 6.866 9.091 6.364 C 9.091 5.862 9.498 5.455 10 5.455 L 10.009 5.455 Z M 20 10 C 20 15.523 15.523 20 10 20 C 4.477 20 0 15.523 0 10 C 0 4.477 4.477 0 10 0 C 15.523 0 20 4.477 20 10 Z" fill="currentColor" fill-rule="nonzero"></path>
</svg>